# xmcd
#
# Track frame offsets: 
#        150
#        12085
#        34600
#        50080
#        62275
#        77752
#        90210
#        101722
#        116295
#        126550
#        140805
#        159242
#        168525
#        177672
#        198120
#        205585
#        220240
#        228692
#        247447
#        262270
#        277025
#        288540
#        298917
#
# Disc length: 4382 seconds
#
# Revision: 0
# Processed by: cddbd v1.5.2PL0 Copyright (c) Steve Scherf et al.
# Submitted via: ExactAudioCopy v1.3
#
DISCID=64111c17
DTITLE=the hutchison bros - the hutchison bros
DYEAR=2001
DGENRE=Bluegrass
TTITLE0=the big scioty
TTITLE1=silver tounge and gold plated lies
TTITLE2=crawdad song
TTITLE3=the cuckoo's nest
TTITLE4=the deep end
TTITLE5=move around the law
TTITLE6=tom and julie hines - banjo tramp
TTITLE7=the willow garden
TTITLE8=three thin dimes
TTITLE9=a year ago today
TTITLE10=the seasons of my heart
TTITLE11=charlotte breakdown
TTITLE12=lost john
TTITLE13=i thought i heard you calling my name
TTITLE14=goin' to the country
TTITLE15=lately she understands
TTITLE16=hell among the yearlings
TTITLE17=the storms are on the ocean
TTITLE18=empty pocket blues
TTITLE19=letters, pictures, and memories
TTITLE20=more than all i have to give
TTITLE21=west virginia highway
TTITLE22=the ballad of tom carr and louisa fox
EXTD=
EXTT0=
EXTT1=
EXTT2=
EXTT3=
EXTT4=
EXTT5=
EXTT6=
EXTT7=
EXTT8=
EXTT9=
EXTT10=
EXTT11=
EXTT12=
EXTT13=
EXTT14=
EXTT15=
EXTT16=
EXTT17=
EXTT18=
EXTT19=
EXTT20=
EXTT21=
EXTT22=
PLAYORDER=
